<svg width="512pt" height="512pt" viewBox="0 0 512 512" version="1.1" xmlns="http://www.w3.org/2000/svg">
<g id="#000000ff">
<path fill="#FCD900" opacity="1.00" d=" M 254.53 173.80 C 277.19 127.28 299.69 80.68 322.55 34.27 C 327.04 36.69 331.60 38.97 336.14 41.30 C 318.51 74.20 300.57 106.94 282.82 139.78 C 275.66 152.67 269.02 165.87 261.53 178.56 C 259.37 176.72 257.00 175.17 254.53 173.80 Z" />
<path fill="#FCD900" opacity="1.00" d=" M 234.25 278.12 C 299.45 197.12 364.54 116.04 429.77 35.06 C 433.74 38.42 437.74 41.76 441.72 45.12 C 362.84 135.43 283.91 225.65 205.02 315.95 C 202.21 318.93 199.85 322.34 196.74 325.03 C 208.97 309.19 221.79 293.79 234.25 278.12 Z" />
<path fill="#FCD900" opacity="1.00" d=" M 206.29 197.33 C 214.38 185.75 230.66 180.82 243.76 186.28 C 250.04 188.75 255.21 193.45 259.01 198.97 C 261.15 202.44 266.10 203.85 269.62 201.62 C 272.58 199.84 275.59 198.10 278.90 197.00 C 246.26 237.73 213.50 278.35 180.79 319.03 C 178.52 321.94 175.24 324.96 176.01 329.06 C 176.38 332.63 179.59 334.71 182.09 336.85 C 185.43 339.49 188.50 342.48 191.97 344.96 C 195.42 347.34 200.34 346.08 202.77 342.82 C 227.84 314.10 253.00 285.44 278.02 256.67 C 317.62 271.55 348.44 307.45 357.05 348.88 C 357.82 352.11 357.97 355.99 360.84 358.19 C 364.46 361.34 370.67 360.12 372.85 355.87 C 374.67 352.86 373.46 349.31 372.84 346.14 C 366.22 314.42 348.40 285.21 323.30 264.71 C 313.02 256.20 301.49 249.26 289.30 243.87 C 298.54 233.27 307.72 222.61 317.10 212.13 C 318.90 215.74 320.03 219.61 320.72 223.58 C 321.29 227.84 325.80 231.02 330.01 230.02 C 336.23 228.54 342.84 228.02 349.01 230.04 C 362.56 233.98 372.29 247.85 371.36 261.94 C 371.23 265.54 369.73 269.64 372.17 272.82 C 374.07 275.82 377.84 276.14 380.93 277.11 C 392.13 280.37 400.96 290.40 402.90 301.89 C 404.42 310.64 402.08 319.95 396.68 327.00 C 394.68 329.43 393.65 332.85 395.05 335.84 C 396.14 338.73 399.16 339.97 401.56 341.56 C 408.87 346.14 413.84 353.93 415.56 362.33 C 370.89 376.72 324.63 386.17 277.85 390.09 C 271.53 377.92 258.11 371.56 245.14 369.23 C 237.09 367.99 230.08 363.71 222.94 360.08 C 202.79 350.92 179.38 349.86 158.07 355.34 C 143.65 359.26 128.88 367.20 122.23 381.27 C 97.32 376.32 72.66 370.06 48.46 362.33 C 50.16 353.64 55.47 345.75 63.04 341.10 C 66.46 339.29 68.71 335.22 67.41 331.39 C 66.03 328.03 63.46 325.31 62.18 321.89 C 57.46 311.20 59.52 298.03 67.12 289.19 C 71.86 283.53 78.68 279.71 85.95 278.48 C 89.28 278.06 92.62 276.09 93.55 272.68 C 94.48 267.82 91.97 262.97 92.76 258.04 C 93.48 242.38 107.45 228.95 123.08 228.60 C 127.62 228.03 132.68 230.72 136.78 227.83 C 141.19 224.61 140.29 218.34 143.09 214.05 C 150.09 199.39 169.14 192.38 183.93 199.22 C 188.89 200.75 192.39 206.26 197.99 205.47 C 202.42 204.98 204.08 200.50 206.29 197.33 M 229.41 200.45 C 226.63 201.37 224.43 203.95 224.14 206.88 C 223.88 210.27 223.88 213.68 224.13 217.07 C 224.48 220.94 228.15 224.05 232.00 223.99 C 235.84 224.04 239.49 220.95 239.86 217.09 C 240.12 213.73 240.11 210.33 239.87 206.97 C 239.49 202.11 233.94 198.71 229.41 200.45 M 165.33 211.47 C 161.08 212.83 158.86 218.01 160.62 222.07 C 162.37 226.38 162.95 232.41 168.07 234.07 C 173.18 236.07 179.22 231.45 178.63 226.00 C 177.94 222.44 176.56 219.04 175.23 215.69 C 173.70 211.97 169.07 210.01 165.33 211.47 M 181.24 241.25 C 142.89 255.44 111.42 286.91 97.24 325.27 C 95.25 329.96 98.99 335.69 104.02 335.96 C 108.04 336.43 111.60 333.40 112.68 329.67 C 125.34 296.50 152.57 269.31 185.73 256.65 C 189.46 255.55 192.46 251.96 191.94 247.94 C 191.63 242.93 185.91 239.26 181.24 241.25 M 115.30 245.48 C 110.27 246.64 107.61 253.21 110.64 257.47 C 112.99 260.43 115.56 263.27 118.45 265.71 C 123.02 269.04 130.21 265.72 130.72 260.11 C 131.53 255.19 127.03 252.05 124.20 248.79 C 122.09 246.20 118.66 244.46 115.30 245.48 M 344.41 245.57 C 340.61 247.04 338.37 250.77 335.58 253.53 C 332.48 256.61 332.69 262.15 336.02 264.97 C 339.15 267.96 344.59 267.57 347.37 264.29 C 350.24 260.90 354.87 257.95 354.78 253.00 C 354.84 247.89 349.24 243.85 344.41 245.57 M 77.42 296.51 C 71.29 298.45 70.43 307.92 76.19 310.84 C 80.88 312.93 86.18 317.31 91.43 314.36 C 96.93 311.52 96.57 302.55 90.82 300.21 C 86.59 298.44 82.24 294.76 77.42 296.51 M 380.46 296.64 C 376.32 298.84 370.54 299.87 368.70 304.75 C 366.74 309.62 370.78 315.53 376.05 315.43 C 379.79 315.20 383.00 312.94 386.36 311.47 C 390.01 310.02 392.28 305.78 391.15 301.96 C 390.09 297.48 384.69 294.69 380.46 296.64 Z" />
<path fill="#FCD900" opacity="1.00" d=" M 172.54 368.73 C 188.46 366.85 205.35 368.57 219.60 376.34 C 226.35 380.14 233.56 383.27 241.21 384.74 C 248.65 386.16 256.45 388.64 261.68 394.42 C 265.83 399.07 263.90 406.66 259.56 410.51 C 253.90 415.34 246.03 415.83 238.93 416.07 C 229.79 416.30 221.14 422.34 217.76 430.83 C 215.41 436.23 216.09 442.23 216.00 447.95 C 215.95 455.97 216.09 464.00 215.95 472.03 C 216.11 476.68 211.54 480.65 206.96 479.92 C 202.71 479.42 199.88 475.05 200.03 470.98 C 199.91 460.63 200.10 450.28 199.96 439.93 C 200.00 436.65 197.78 433.53 194.68 432.48 C 191.39 431.24 187.38 432.52 185.43 435.45 C 183.77 437.74 184.25 440.76 183.26 443.30 C 181.89 446.43 178.35 448.41 174.95 447.92 C 171.15 447.47 168.33 443.80 168.11 440.11 C 167.86 436.71 168.16 433.29 167.56 429.93 C 166.13 421.24 160.22 413.54 152.33 409.70 C 146.00 406.55 139.26 402.45 136.64 395.51 C 134.58 389.80 138.24 384.06 142.49 380.49 C 150.89 373.41 161.84 370.21 172.54 368.73 Z" />
</g>
</svg>
