<svg width="512pt" height="512pt" viewBox="0 0 512 512" version="1.1" xmlns="http://www.w3.org/2000/svg">
<g id="#000000ff">
<path fill="#FCD900" opacity="1.00" d=" M 66.89 48.06 C 67.82 43.63 71.66 40.05 76.13 39.40 C 79.85 38.97 83.48 40.20 87.09 40.93 C 225.29 71.02 363.49 101.09 501.69 131.19 C 506.94 131.95 511.26 136.12 512.00 141.41 L 512.00 143.46 C 509.78 153.75 507.68 164.08 505.25 174.33 C 503.78 180.38 496.91 183.92 491.03 182.20 C 350.50 151.57 209.96 120.99 69.43 90.37 C 65.56 89.55 62.21 86.68 60.99 82.89 C 59.78 79.59 60.76 76.08 61.44 72.77 C 63.35 64.56 64.92 56.26 66.89 48.06 Z" />
<path fill="#FCD900" opacity="1.00" d=" M 58.57 141.00 C 58.61 135.08 64.01 129.94 69.90 130.05 C 109.94 129.93 149.98 130.05 190.01 129.99 C 193.43 129.92 196.88 129.93 200.21 130.78 C 278.50 147.93 356.86 164.75 435.09 182.10 C 313.72 182.33 192.35 182.14 70.98 182.20 C 64.64 182.73 58.49 177.44 58.55 170.99 C 58.46 161.00 58.44 150.99 58.57 141.00 Z" />
<path fill="#FCD900" opacity="1.00" d=" M 1.31 195.95 C 1.66 189.72 7.84 184.96 13.95 185.64 C 157.29 191.27 300.63 196.86 443.97 202.55 C 450.30 202.17 456.28 207.50 456.12 213.94 C 455.96 223.63 455.39 233.33 455.01 243.02 C 454.98 246.92 453.08 250.81 449.70 252.84 C 445.78 255.47 440.86 254.52 436.44 254.45 C 294.72 248.82 152.99 243.25 11.26 237.69 C 5.66 237.70 1.05 233.23 0.00 227.89 L 0.00 224.41 C 0.57 214.93 0.68 205.42 1.31 195.95 Z" />
<path fill="#FCD900" opacity="1.00" d=" M 36.01 250.31 C 113.71 253.29 191.41 256.42 269.11 259.49 C 274.14 259.81 279.05 261.06 284.00 261.94 C 348.53 274.21 413.08 286.38 477.60 298.70 C 483.90 299.38 488.95 305.66 487.70 311.98 C 485.97 321.76 484.12 331.53 482.20 341.27 C 481.00 347.56 474.09 351.63 467.98 349.92 C 328.95 323.46 189.91 297.10 50.88 270.68 C 45.82 269.74 39.70 269.38 36.68 264.53 C 33.58 260.32 35.00 254.96 36.01 250.31 Z" />
<path fill="#FCD900" opacity="1.00" d=" M 26.23 274.22 C 29.71 272.78 33.47 273.85 36.80 275.16 C 170.93 324.40 305.11 373.53 439.24 422.76 C 445.48 424.56 449.37 431.83 446.90 437.96 C 443.67 446.99 440.32 455.99 436.99 464.99 C 435.25 470.20 429.51 473.72 424.09 472.56 C 420.07 471.60 416.30 469.83 412.40 468.49 C 282.70 420.90 152.98 373.36 23.28 325.76 C 19.75 324.34 15.84 323.57 12.80 321.16 C 9.13 318.15 7.73 312.80 9.47 308.38 C 12.61 299.57 15.86 290.79 19.03 281.99 C 20.17 278.52 22.74 275.47 26.23 274.22 Z" />
<path fill="#FCD900" opacity="1.00" d=" M 282.59 327.34 C 284.07 326.91 285.60 327.10 287.09 327.38 C 318.08 333.33 349.09 339.19 380.09 345.11 C 381.62 350.43 378.88 356.84 373.27 358.25 C 358.26 362.21 343.20 365.94 328.14 369.69 C 299.20 358.98 270.19 348.47 241.24 337.78 C 255.05 334.37 268.81 330.83 282.59 327.34 Z" />
<path fill="#FCD900" opacity="1.00" d=" M 40.08 388.46 C 63.81 382.48 87.50 376.30 111.26 370.44 C 140.42 380.60 169.31 391.67 198.36 402.19 C 150.25 414.45 102.09 426.52 53.95 438.67 C 50.36 439.79 46.16 439.38 43.35 436.71 C 40.54 434.29 40.01 430.45 39.12 427.06 C 36.95 418.06 34.48 409.12 32.42 400.09 C 31.19 394.93 34.98 389.51 40.08 388.46 Z" />
</g>
</svg>
