<?xml version="1.0" encoding="UTF-8" ?>
<!DOCTYPE svg PUBLIC "-//W3C//DTD SVG 1.1//EN" "http://www.w3.org/Graphics/SVG/1.1/DTD/svg11.dtd">
<svg width="512pt" height="512pt" viewBox="0 0 512 512" version="1.1" xmlns="http://www.w3.org/2000/svg">
<g id="#000000ff">
<path fill="#FCD900" opacity="1.00" d=" M 248.73 89.81 C 255.33 86.22 263.50 85.54 270.47 88.49 C 280.08 92.17 286.63 100.72 295.67 105.31 C 307.09 109.35 320.54 106.89 330.83 114.27 C 339.18 120.02 341.47 130.65 342.44 140.10 C 346.62 139.53 350.95 138.85 354.55 136.51 C 359.94 132.98 364.62 128.49 369.98 124.91 C 376.79 120.14 385.68 117.65 393.79 120.36 C 404.47 123.52 411.46 132.95 421.11 137.91 C 432.08 141.86 444.80 139.65 455.02 146.01 C 462.63 150.52 466.15 159.35 467.23 167.76 C 468.73 175.84 467.96 184.96 473.22 191.83 C 479.32 200.33 487.77 208.11 489.18 219.02 C 490.59 228.70 485.13 237.51 479.25 244.66 C 487.32 245.12 495.27 248.22 501.17 253.82 C 507.38 259.49 511.08 267.54 512.00 275.85 L 512.00 280.79 C 511.12 294.10 501.87 306.21 489.30 310.62 C 487.85 342.88 472.74 374.18 448.39 395.39 C 426.98 414.36 398.61 425.27 369.98 425.38 C 294.32 425.42 218.66 425.40 143.00 425.39 C 113.11 425.48 83.41 413.86 61.53 393.51 C 38.37 372.39 24.10 341.95 22.70 310.62 C 10.22 306.24 1.00 294.28 0.00 281.07 L 0.00 276.28 C 0.96 260.69 13.70 247.06 29.16 244.98 C 24.67 238.66 21.40 230.85 23.00 222.97 C 24.82 212.54 32.88 205.05 38.79 196.79 C 44.17 189.70 43.23 180.31 44.87 172.01 C 46.04 163.12 50.45 153.92 58.93 149.96 C 70.84 143.54 86.39 148.29 97.06 139.05 C 105.60 132.44 114.41 123.91 126.01 124.27 C 138.01 124.47 146.63 133.79 155.70 140.36 C 162.29 145.49 171.05 144.92 178.87 146.24 C 180.22 135.61 180.65 123.15 189.47 115.65 C 199.33 107.12 213.23 109.15 224.98 105.83 C 233.92 102.16 240.05 93.99 248.73 89.81 M 255.37 103.30 C 247.21 107.96 240.90 115.42 232.20 119.20 C 223.34 122.90 213.51 122.29 204.32 124.58 C 201.00 125.33 197.86 127.48 196.77 130.83 C 193.56 140.26 194.84 150.69 190.97 159.97 C 187.32 168.99 179.70 175.49 174.85 183.78 C 172.92 186.98 172.63 191.09 174.46 194.40 C 178.99 202.93 186.84 209.31 190.70 218.26 C 194.24 226.64 193.95 235.92 195.72 244.72 C 239.25 244.75 282.78 244.74 326.31 244.72 C 328.08 235.94 327.78 226.68 331.31 218.30 C 335.14 209.37 342.95 203.00 347.51 194.52 C 349.40 191.19 349.14 187.02 347.17 183.79 C 342.52 175.66 335.08 169.36 331.31 160.68 C 327.46 151.62 328.29 141.49 325.74 132.12 C 324.87 128.48 321.93 125.61 318.30 124.75 C 308.72 122.18 298.34 123.04 289.16 118.91 C 280.55 114.93 274.28 107.42 265.99 102.96 C 262.69 101.11 258.57 101.37 255.37 103.30 M 395.40 185.44 C 390.37 187.94 390.33 195.96 395.33 198.52 C 400.01 201.51 406.82 197.52 406.57 191.99 C 406.82 186.49 400.09 182.52 395.40 185.44 M 102.42 192.63 C 97.35 194.58 96.32 202.15 100.69 205.37 C 104.77 208.99 112.00 206.33 112.78 200.94 C 114.16 195.30 107.63 190.06 102.42 192.63 M 28.39 260.59 C 19.66 263.08 13.71 272.51 15.28 281.47 C 16.51 290.43 24.94 297.63 34.00 297.40 C 181.99 297.40 329.98 297.40 477.97 297.40 C 485.26 297.53 492.33 292.98 495.26 286.31 C 498.26 279.86 497.11 271.76 492.44 266.40 C 488.68 261.90 482.78 259.50 476.96 259.73 C 329.65 259.73 182.35 259.73 35.04 259.73 C 32.80 259.76 30.53 259.91 28.39 260.59 M 37.93 312.47 C 39.78 340.63 53.72 367.65 75.40 385.67 C 94.10 401.47 118.46 410.39 142.96 410.33 C 218.32 410.33 293.68 410.33 369.04 410.33 C 388.51 410.35 407.94 404.81 424.46 394.50 C 452.77 377.09 471.97 345.70 474.05 312.47 C 328.68 312.46 183.30 312.46 37.93 312.47 Z" />
<path fill="#FCD900" opacity="1.00" d=" M 231.37 139.59 C 237.05 137.69 242.90 144.15 240.39 149.61 C 238.55 154.80 230.85 155.99 227.58 151.54 C 224.13 147.64 226.33 140.79 231.37 139.59 Z" />
<path fill="#FCD900" opacity="1.00" d=" M 283.35 192.54 C 288.54 190.18 294.85 195.40 293.49 200.95 C 292.70 206.28 285.60 208.96 281.50 205.45 C 276.94 202.23 278.08 194.37 283.35 192.54 Z" />
</g>
</svg>
