<svg width="512pt" height="512pt" viewBox="0 0 512 512" version="1.1" xmlns="http://www.w3.org/2000/svg">
<g id="#000000ff">
<path fill="#FCD900" opacity="1.00" d=" M 253.65 88.33 C 247.54 76.01 245.61 60.81 252.59 48.41 C 250.40 60.02 258.46 68.81 264.46 77.58 C 274.62 93.55 269.15 113.61 261.09 129.21 C 263.11 115.13 259.82 100.98 253.65 88.33 Z" />
<path fill="#FCD900" opacity="1.00" d=" M 244.58 122.40 C 239.68 111.94 234.88 99.39 241.03 88.34 C 240.57 96.16 245.32 102.35 249.72 108.23 C 257.36 119.62 253.51 134.19 247.81 145.51 C 248.38 137.68 247.66 129.70 244.58 122.40 Z" />
<path fill="#FCD900" opacity="1.00" d=" M 280.16 107.90 C 280.41 100.70 282.98 93.19 289.22 89.04 C 283.78 100.58 292.09 112.56 289.44 124.42 C 288.04 133.08 281.49 139.66 274.40 144.24 C 281.16 133.28 280.18 120.19 280.16 107.90 Z" />
<path fill="#FCD900" opacity="1.00" d=" M 326.81 130.80 C 332.36 123.91 343.81 125.39 348.81 132.19 C 358.79 143.50 358.12 159.41 358.68 173.52 C 359.29 186.70 364.11 199.14 368.63 211.38 C 375.28 228.95 381.89 246.62 390.80 263.20 C 397.43 275.65 405.24 287.56 410.03 300.89 C 414.28 312.55 415.05 325.04 416.66 337.24 C 439.07 338.96 461.44 345.87 479.46 359.60 C 486.28 364.94 492.30 373.59 489.54 382.63 C 486.18 391.39 480.19 399.03 473.05 405.06 C 444.42 430.20 408.54 445.77 371.82 454.81 C 316.62 468.17 259.09 466.33 203.02 460.28 C 164.66 455.85 125.71 451.01 89.66 436.41 C 68.54 428.03 48.86 415.36 34.03 397.98 C 27.57 392.09 20.14 384.64 22.00 375.01 C 24.61 361.64 37.97 354.71 49.16 349.32 C 44.82 347.01 40.68 344.30 37.07 340.95 C 40.45 335.11 45.65 330.57 51.84 327.92 C 41.32 327.14 30.62 320.65 27.27 310.30 C 30.46 305.88 36.02 304.44 41.17 303.99 C 37.35 293.27 33.23 282.28 34.34 270.67 C 47.48 269.93 57.29 280.21 64.34 290.01 C 65.21 282.44 70.38 276.45 76.07 271.84 C 81.41 279.95 88.42 289.37 84.15 299.55 C 86.95 295.92 89.94 292.29 94.18 290.28 C 95.29 287.38 96.21 284.31 98.18 281.86 C 102.43 281.02 106.14 283.75 109.45 285.98 C 114.57 279.45 120.08 269.39 129.63 270.32 C 137.17 259.01 150.01 252.98 158.34 242.38 C 177.98 218.73 185.07 188.08 197.59 160.63 C 200.12 154.31 203.89 146.91 211.70 146.66 C 224.95 146.20 233.45 159.48 237.35 170.62 C 241.44 184.50 245.76 198.53 254.37 210.40 C 287.08 192.85 302.95 157.46 326.81 130.80 M 324.25 141.26 C 303.65 167.04 287.15 198.23 257.07 214.42 C 270.80 233.93 284.54 253.62 301.41 270.59 C 311.63 281.12 322.43 291.53 329.28 304.71 C 336.91 319.32 340.46 335.90 350.06 349.52 C 350.82 335.98 355.74 323.20 357.63 309.85 C 361.21 285.67 358.38 260.53 349.22 237.86 C 338.58 211.30 326.87 183.03 331.73 153.82 C 332.78 146.08 336.28 139.03 338.49 131.61 C 331.60 129.75 328.05 136.99 324.25 141.26 M 348.26 139.54 C 345.61 155.29 332.99 169.41 337.11 185.95 C 339.97 204.58 348.24 221.67 354.89 239.12 C 364.01 263.39 366.32 290.15 361.55 315.62 C 359.24 328.42 354.37 340.93 354.97 354.11 C 354.86 355.98 356.02 357.52 357.12 358.92 C 363.81 367.21 371.21 374.96 377.22 383.79 C 379.61 387.27 380.89 392.35 377.90 395.89 C 373.33 401.21 365.96 402.24 359.86 405.02 C 356.44 406.48 354.05 410.15 350.03 410.16 C 346.13 410.34 342.26 410.90 338.63 412.41 C 345.69 413.76 352.90 414.02 360.07 413.69 C 382.42 412.75 404.76 411.34 427.04 409.24 C 430.84 409.08 436.57 407.12 434.82 402.18 C 430.06 387.11 421.09 373.73 416.27 358.67 C 410.45 342.02 411.81 323.95 406.93 307.08 C 402.18 290.71 392.12 276.69 384.52 261.61 C 376.14 245.26 369.76 228.00 363.28 210.84 C 358.85 198.95 354.47 186.77 353.88 173.97 C 353.24 162.38 354.03 150.09 348.26 139.54 M 205.54 155.55 C 189.30 186.99 182.96 224.38 157.48 250.47 C 149.43 259.34 137.08 264.67 132.25 276.16 C 132.81 282.34 133.33 288.61 131.49 294.66 C 136.32 294.72 141.57 294.59 145.77 297.36 C 145.17 303.46 141.75 308.91 138.34 313.87 C 141.90 316.53 145.96 319.42 147.03 324.02 C 147.99 328.11 145.42 331.90 142.58 334.56 C 135.34 341.17 126.48 347.20 116.23 346.84 C 114.00 360.28 111.24 375.61 99.34 384.06 C 117.55 391.65 137.56 393.08 157.07 393.34 C 159.92 393.26 162.71 393.91 165.33 395.02 C 164.93 395.83 164.12 397.46 163.71 398.27 C 141.42 398.13 118.38 397.31 97.57 388.46 C 95.42 387.58 93.13 387.16 90.85 386.80 C 88.57 384.34 85.98 382.20 83.22 380.31 C 78.50 383.22 72.97 385.75 67.29 384.65 C 64.35 381.39 64.99 376.66 64.83 372.63 C 62.28 372.45 59.74 372.26 57.19 372.05 C 54.24 374.79 51.39 377.65 49.06 380.96 C 57.93 386.35 68.10 388.90 77.85 392.16 C 145.31 413.32 216.82 415.74 286.97 414.45 C 290.70 414.46 296.70 413.09 295.31 408.05 C 291.16 391.35 282.27 376.13 278.76 359.21 C 276.27 347.91 277.27 336.29 276.47 324.83 C 274.66 298.49 265.32 272.63 249.54 251.43 C 240.26 238.89 230.55 226.55 223.37 212.64 C 214.10 195.42 208.79 175.45 212.20 155.90 C 213.93 150.49 206.61 151.68 205.54 155.55 M 223.65 156.63 C 225.40 172.74 216.31 189.96 224.91 205.05 C 232.14 221.22 243.46 234.98 253.84 249.16 C 270.63 271.88 280.35 299.70 281.47 327.93 C 281.93 338.37 281.29 348.97 283.72 359.22 C 287.18 374.33 294.43 388.18 299.07 402.91 C 300.14 406.67 301.11 411.18 298.73 414.66 C 296.30 418.04 291.89 418.91 288.01 419.20 C 249.69 420.41 211.32 419.08 173.12 416.08 C 192.99 420.11 213.25 422.21 233.48 423.26 C 255.38 423.89 277.76 425.88 299.21 420.24 C 322.34 413.17 345.22 405.25 367.89 396.83 C 371.48 395.63 376.82 392.46 374.05 388.00 C 364.60 373.12 350.74 361.42 342.08 345.94 C 333.58 330.84 330.13 313.27 320.13 298.95 C 311.53 286.72 300.15 276.86 290.25 265.75 C 278.03 252.40 267.60 237.57 257.11 222.86 C 249.65 212.23 241.98 201.42 238.03 188.92 C 234.33 177.74 232.13 165.42 223.65 156.63 M 109.32 293.54 C 106.44 291.49 104.52 286.61 100.47 287.17 C 97.43 293.19 98.45 300.48 101.94 306.08 C 103.31 307.72 102.16 309.56 101.48 311.21 C 97.17 308.28 92.59 305.53 87.26 305.12 C 87.51 308.41 86.68 312.37 88.67 315.17 C 94.62 318.53 100.63 321.91 105.47 326.85 C 111.68 316.17 113.31 303.81 117.12 292.26 C 118.55 293.41 121.32 294.17 120.42 296.53 C 118.23 308.40 114.85 320.21 108.81 330.74 C 111.23 334.21 112.94 338.14 115.45 341.55 C 125.37 343.17 133.97 336.04 140.61 329.57 C 144.77 325.87 140.44 320.26 136.38 318.79 C 132.79 317.81 128.05 318.13 127.01 313.60 C 134.41 312.63 138.45 306.44 140.38 299.83 C 135.41 298.82 130.67 300.30 126.11 302.10 C 124.12 299.88 125.97 296.89 126.40 294.42 C 128.46 288.13 128.81 281.18 126.14 275.01 C 118.66 279.41 115.31 287.78 109.32 293.54 M 54.55 301.61 C 58.15 313.09 67.13 322.27 77.43 328.15 C 77.22 326.16 77.00 324.19 76.79 322.22 C 68.90 317.00 62.78 309.49 59.09 300.80 C 58.73 297.61 53.61 298.56 54.55 301.61 M 81.72 318.12 C 80.41 327.61 86.58 335.49 88.42 344.38 C 87.58 344.59 85.90 345.02 85.05 345.23 C 78.42 337.29 67.65 333.58 57.54 336.00 C 59.22 338.55 61.04 341.00 62.96 343.39 C 64.16 343.24 65.36 343.09 66.55 342.95 C 68.30 345.29 70.04 347.63 71.67 350.06 C 66.96 352.36 61.38 351.34 56.72 353.81 C 51.94 355.90 48.47 360.03 45.97 364.49 C 54.19 367.37 62.93 367.74 71.53 368.38 C 70.69 372.37 69.67 376.34 69.62 380.44 C 72.83 379.71 75.97 378.72 79.01 377.46 C 75.38 372.75 73.02 365.51 78.27 360.98 C 78.95 361.48 80.31 362.48 80.99 362.98 C 79.63 366.81 80.04 370.85 82.53 374.14 C 84.30 371.51 85.92 368.80 87.64 366.15 C 93.17 369.39 88.47 377.60 93.38 381.90 C 100.42 378.09 105.70 371.40 107.55 363.59 C 109.08 356.86 112.71 349.78 110.14 342.86 C 105.22 330.74 94.21 321.64 81.72 318.12 M 417.30 342.24 C 419.95 362.77 432.14 380.01 439.02 399.10 C 440.86 403.28 439.63 407.82 437.01 411.34 C 450.40 406.75 464.11 402.08 475.55 393.51 C 482.36 388.78 488.42 379.59 483.58 371.42 C 475.98 359.37 461.77 354.00 449.13 348.89 C 439.07 344.49 428.06 343.65 417.30 342.24 M 27.22 373.22 C 24.85 379.39 28.33 385.98 32.86 390.14 C 41.73 398.47 53.15 403.34 64.36 407.63 C 95.12 418.68 127.57 424.02 159.92 427.87 C 208.74 433.31 258.02 434.25 307.06 431.66 C 346.18 429.16 385.61 425.39 423.46 414.80 C 398.67 415.92 373.90 418.85 349.05 418.45 C 340.52 418.73 331.86 413.97 323.58 417.50 C 311.52 421.68 299.33 425.87 286.63 427.57 C 273.49 429.31 260.20 429.06 246.98 428.71 C 206.53 427.57 166.17 421.76 127.20 410.78 C 105.36 403.98 82.71 399.97 61.30 391.74 C 55.92 389.44 49.30 388.36 45.58 383.46 C 43.02 378.43 48.08 374.28 51.14 370.97 C 47.68 369.88 43.62 369.68 40.89 367.04 C 41.28 363.38 43.10 360.11 44.68 356.86 C 37.88 360.98 30.19 365.38 27.22 373.22 Z" />
<path fill="#FCD900" opacity="1.00" d=" M 345.87 185.10 C 345.92 181.93 346.67 178.83 348.24 176.07 C 348.19 179.23 347.48 182.35 345.87 185.10 Z" />
<path fill="#FCD900" opacity="1.00" d=" M 231.90 199.67 C 232.21 197.21 232.52 194.75 233.07 192.33 C 233.49 194.78 233.77 197.25 234.04 199.72 C 233.50 199.70 232.43 199.68 231.90 199.67 Z" />
<path fill="#FCD900" opacity="1.00" d=" M 299.05 214.66 C 294.01 213.39 297.51 206.63 300.25 204.39 C 302.39 207.68 302.40 212.16 299.05 214.66 Z" />
<path fill="#FCD900" opacity="1.00" d=" M 194.02 243.63 C 191.29 240.03 191.05 235.15 194.75 232.15 C 197.18 235.81 197.38 240.44 194.02 243.63 Z" />
<path fill="#FCD900" opacity="1.00" d=" M 371.19 253.45 C 375.19 252.98 375.94 259.68 371.91 260.00 C 367.53 261.08 366.78 253.54 371.19 253.45 Z" />
<path fill="#FCD900" opacity="1.00" d=" M 274.28 261.08 C 277.73 258.94 281.15 264.87 277.58 266.72 C 274.10 269.59 270.27 262.97 274.28 261.08 Z" />
<path fill="#FCD900" opacity="1.00" d=" M 156.12 262.96 C 157.81 261.81 159.20 263.95 160.59 264.64 C 155.12 269.87 149.44 274.92 144.91 281.04 C 143.61 283.71 141.23 281.56 139.46 280.69 C 144.01 273.98 149.34 267.52 156.12 262.96 Z" />
<path fill="#FCD900" opacity="1.00" d=" M 345.69 302.55 C 344.20 298.05 345.35 293.18 349.09 290.18 C 350.04 294.64 348.88 299.25 345.69 302.55 Z" />
<path fill="#FCD900" opacity="1.00" d=" M 385.69 299.26 C 384.35 297.23 387.43 296.42 388.49 295.19 C 394.94 304.94 397.22 317.63 393.93 328.89 C 393.59 332.46 388.34 330.42 389.62 327.48 C 391.27 317.96 389.87 307.96 385.69 299.26 Z" />
<path fill="#FCD900" opacity="1.00" d=" M 168.52 298.48 C 171.41 297.02 171.17 299.86 170.95 301.95 C 169.56 301.07 165.70 300.24 168.52 298.48 Z" />
<path fill="#FCD900" opacity="1.00" d=" M 299.25 299.91 C 300.18 298.86 301.12 297.82 302.06 296.79 C 311.63 304.79 316.19 317.42 316.19 329.67 C 314.68 329.40 311.67 331.00 311.61 328.61 C 310.56 318.07 306.49 307.74 299.25 299.91 Z" />
<path fill="#FCD900" opacity="1.00" d=" M 224.26 302.33 C 228.74 300.55 236.69 304.02 234.66 309.62 C 230.48 316.72 215.46 307.26 224.26 302.33 Z" />
<path fill="#FCD900" opacity="1.00" d=" M 262.79 314.95 C 259.85 311.16 259.98 306.08 262.73 302.23 C 264.76 306.27 264.73 310.88 262.79 314.95 Z" />
<path fill="#FCD900" opacity="1.00" d=" M 297.35 308.32 C 302.74 306.34 305.15 315.49 299.65 316.63 C 294.54 318.11 292.31 309.73 297.35 308.32 Z" />
<path fill="#FCD900" opacity="1.00" d=" M 217.38 333.30 C 222.16 329.97 226.67 338.26 221.65 340.74 C 217.03 343.48 212.82 335.93 217.38 333.30 Z" />
<path fill="#FCD900" opacity="1.00" d=" M 148.40 345.43 C 151.97 344.62 157.73 346.42 157.16 350.91 C 155.20 356.32 145.99 356.45 143.49 351.39 C 142.34 348.30 145.66 345.79 148.40 345.43 Z" />
<path fill="#FCD900" opacity="1.00" d=" M 99.43 350.46 C 102.57 350.22 107.67 350.19 105.81 354.74 C 95.25 355.54 84.64 356.85 74.68 360.72 C 71.61 361.63 66.03 364.65 65.95 359.20 C 76.28 354.04 87.95 351.42 99.43 350.46 Z" />
<path fill="#FCD900" opacity="1.00" d=" M 89.32 357.26 C 90.96 358.06 96.48 358.43 92.53 360.35 C 90.58 362.45 90.17 358.35 89.32 357.26 Z" />
<path fill="#FCD900" opacity="1.00" d=" M 316.42 379.42 C 321.15 376.77 324.77 385.06 319.78 386.92 C 315.10 389.12 311.81 381.44 316.42 379.42 Z" />
<path fill="#FCD900" opacity="1.00" d=" M 345.47 383.48 C 350.52 381.20 353.64 389.76 348.51 391.50 C 343.50 393.65 340.43 385.27 345.47 383.48 Z" />
<path fill="#FCD900" opacity="1.00" d=" M 408.34 390.49 C 414.01 389.48 414.75 399.18 408.99 399.05 C 403.80 399.43 403.26 390.95 408.34 390.49 Z" />
<path fill="#FCD900" opacity="1.00" d=" M 254.44 396.49 C 258.80 393.67 263.07 401.12 258.55 403.56 C 254.05 406.62 249.77 398.92 254.44 396.49 Z" />
</g>
</svg>
