
<svg width="512pt" height="512pt" viewBox="0 0 512 512" version="1.1" xmlns="http://www.w3.org/2000/svg">
<g id="#000000ff">
<path fill="#FCD900" opacity="1.00" d=" M 136.76 11.73 C 139.99 8.64 144.93 10.83 146.52 14.54 C 157.10 32.23 169.39 48.95 178.11 67.69 C 172.42 71.45 166.41 74.80 159.78 76.57 C 150.32 59.84 144.84 41.29 137.31 23.69 C 135.94 20.00 132.95 14.96 136.76 11.73 Z" />
<path fill="#FCD900" opacity="1.00" d=" M 213.44 62.46 C 218.69 61.92 224.42 64.71 226.09 69.96 C 228.83 78.60 225.55 88.18 219.88 94.91 C 216.11 99.50 210.37 101.50 205.44 104.48 C 191.09 113.06 180.78 126.79 166.83 135.88 C 155.93 142.47 137.75 142.16 131.85 129.10 C 127.39 116.85 130.38 100.28 142.30 93.29 C 151.98 87.34 164.28 89.87 174.04 84.04 C 188.01 78.15 197.25 63.05 213.44 62.46 Z" />
<path fill="#FCD900" opacity="1.00" d=" M 239.34 89.36 C 252.33 83.54 267.08 76.98 281.45 81.56 C 289.98 84.24 292.81 93.99 291.98 102.05 C 286.47 100.81 280.22 98.88 274.97 101.98 C 263.98 107.90 253.27 114.58 244.08 123.10 C 235.28 131.28 227.75 140.68 220.01 149.84 C 227.67 164.59 235.02 179.50 242.74 194.22 C 258.63 184.04 274.46 173.77 289.85 162.85 C 299.39 155.44 312.22 151.64 324.09 154.90 C 329.18 156.32 334.65 159.69 335.52 165.35 C 336.24 173.07 334.63 180.83 332.10 188.11 C 324.91 180.28 312.51 176.92 303.30 183.31 C 286.76 194.22 270.82 206.03 254.27 216.93 C 260.34 228.93 266.48 240.90 272.61 252.87 C 287.58 243.18 302.51 233.43 317.03 223.08 C 326.43 216.38 338.91 213.46 350.09 216.97 C 354.87 218.52 359.90 221.94 360.55 227.32 C 361.16 235.00 359.61 242.70 357.06 249.92 C 349.93 241.93 337.38 238.68 328.17 245.14 C 313.27 254.86 299.02 265.57 284.14 275.34 C 293.73 294.35 303.44 313.30 313.14 332.25 C 327.28 326.22 340.97 316.61 356.95 317.16 C 364.23 320.52 371.45 327.41 371.26 336.02 C 371.19 341.51 367.67 345.98 364.42 350.07 C 365.68 341.02 354.31 338.01 347.92 341.87 C 340.16 346.19 332.15 350.04 324.13 353.85 C 326.53 358.19 328.21 362.95 331.08 367.01 C 337.94 364.68 343.59 359.11 351.04 358.55 C 353.95 358.12 358.19 361.13 356.14 364.23 C 351.97 372.41 347.26 380.42 341.35 387.48 C 357.95 420.52 374.93 453.38 391.64 486.37 C 394.47 491.23 392.63 498.04 387.58 500.61 C 382.78 503.36 376.13 501.33 373.72 496.34 C 357.11 464.13 340.89 431.72 324.22 399.53 C 317.27 401.77 310.23 407.35 302.65 404.30 C 292.59 400.26 284.56 392.51 277.13 384.84 C 288.93 382.50 300.47 379.02 311.81 375.03 C 309.60 370.59 307.35 366.17 305.04 361.78 C 287.24 368.21 268.87 373.58 249.94 375.24 C 241.98 375.94 233.19 374.54 227.23 368.78 C 222.51 364.42 220.41 358.07 219.60 351.85 C 228.34 357.42 239.17 356.40 248.89 354.67 C 264.47 351.78 279.44 346.38 294.15 340.60 C 285.24 322.57 275.97 304.73 266.86 286.80 C 247.75 298.44 228.43 310.62 206.61 316.48 C 195.25 319.32 182.74 320.98 171.56 316.52 C 163.40 313.36 157.69 304.84 158.04 296.08 C 163.93 287.96 174.45 285.17 183.66 282.57 C 183.89 286.01 184.28 290.51 188.31 291.56 C 196.23 293.70 204.43 290.82 211.69 287.72 C 226.79 280.95 240.94 272.32 255.12 263.86 C 249.08 251.94 243.02 240.04 236.86 228.18 C 218.45 239.27 199.59 250.62 178.42 255.51 C 167.70 257.83 155.95 258.95 145.65 254.36 C 137.88 250.99 132.58 242.53 133.13 234.08 C 139.20 226.21 149.50 223.41 158.67 220.82 C 159.03 223.97 159.02 228.14 162.58 229.48 C 169.61 232.07 177.33 229.64 184.04 227.09 C 198.36 221.00 211.79 213.06 225.10 205.05 C 218.34 191.84 211.65 178.59 204.85 165.40 C 190.57 177.63 175.28 188.79 158.73 197.77 C 150.32 202.19 141.52 206.55 131.96 207.61 C 127.58 208.26 122.67 206.32 121.15 201.89 C 116.38 190.24 120.26 177.37 123.98 166.00 C 125.83 157.78 135.06 155.64 140.97 151.01 C 152.49 153.66 165.17 151.75 175.01 145.06 C 189.80 135.05 200.62 119.75 216.99 111.98 C 223.71 108.78 229.47 103.55 233.08 97.02 C 234.76 94.18 235.86 90.49 239.34 89.36 Z" />
<path fill="#FCD900" opacity="1.00" d=" M 234.64 151.20 C 247.05 135.69 261.98 121.70 280.13 113.26 C 288.51 110.98 293.85 121.00 292.30 128.10 C 289.28 140.10 281.86 150.55 273.42 159.39 C 265.21 165.68 256.27 170.98 247.69 176.76 C 243.24 168.29 238.85 159.79 234.64 151.20 Z" />
<path fill="#FCD900" opacity="1.00" d=" M 180.27 199.27 C 186.86 194.34 193.70 189.71 200.36 184.86 C 203.00 190.23 205.72 195.56 208.34 200.94 C 196.87 207.25 185.61 214.36 172.95 218.06 C 175.06 211.71 176.48 204.88 180.27 199.27 Z" />
<path fill="#FCD900" opacity="1.00" d=" M 306.55 195.52 C 309.56 193.48 313.07 191.07 316.90 192.17 C 322.64 193.84 326.11 199.68 326.21 205.46 C 314.96 208.51 306.08 216.31 296.60 222.66 C 290.18 227.01 283.75 231.36 277.22 235.53 C 274.76 230.70 272.30 225.89 269.84 221.06 C 282.07 212.53 294.32 204.05 306.55 195.52 Z" />
<path fill="#FCD900" opacity="1.00" d=" M 205.13 259.15 C 214.37 254.92 223.35 250.14 232.15 245.04 C 234.59 249.71 236.99 254.40 239.34 259.13 C 226.01 266.84 212.81 275.30 197.97 279.81 C 200.13 272.85 202.41 265.92 205.13 259.15 Z" />
<path fill="#FCD900" opacity="1.00" d=" M 332.57 256.54 C 336.11 253.75 340.75 254.73 344.70 255.90 C 332.42 269.77 318.87 282.92 309.89 299.29 C 306.40 292.70 302.99 286.06 299.74 279.34 C 310.74 271.81 321.58 264.07 332.57 256.54 Z" />
<path fill="#FCD900" opacity="1.00" d=" M 230.03 321.10 C 240.60 315.84 251.14 310.48 261.24 304.33 C 266.45 314.26 271.55 324.24 276.64 334.23 C 263.80 338.66 250.69 343.08 237.04 343.85 C 233.53 343.82 229.24 344.22 226.65 341.34 C 221.20 335.45 224.45 325.67 230.03 321.10 Z" />
</g>
</svg>
