<?xml version="1.0" encoding="UTF-8" ?>
<!DOCTYPE svg PUBLIC "-//W3C//DTD SVG 1.1//EN" "http://www.w3.org/Graphics/SVG/1.1/DTD/svg11.dtd">
<svg width="512pt" height="512pt" viewBox="0 0 512 512" version="1.1" xmlns="http://www.w3.org/2000/svg">
<g id="#000000ff">
<path fill="#000000" opacity="1.00" d=" M 22.67 0.00 L 31.26 0.00 C 36.89 1.65 42.40 4.18 46.54 8.46 C 116.40 78.20 186.09 148.12 256.00 217.82 C 325.91 148.12 395.60 78.20 465.47 8.46 C 469.58 4.19 475.08 1.68 480.68 0.00 L 489.28 0.00 C 500.54 2.41 509.54 11.42 512.00 22.67 L 512.00 31.26 C 510.35 36.89 507.82 42.40 503.54 46.53 C 433.81 116.40 363.90 186.09 294.21 256.00 C 363.90 325.91 433.81 395.60 503.54 465.47 C 507.81 469.58 510.32 475.08 512.00 480.68 L 512.00 489.27 C 509.59 500.54 500.58 509.54 489.33 512.00 L 480.74 512.00 C 475.11 510.35 469.60 507.82 465.47 503.54 C 395.60 433.81 325.91 363.90 256.00 294.21 C 186.09 363.90 116.40 433.81 46.53 503.54 C 42.41 507.81 36.92 510.32 31.32 512.00 L 22.72 512.00 C 11.46 509.59 2.46 500.58 0.00 489.34 L 0.00 480.75 C 1.65 475.11 4.17 469.60 8.46 465.47 C 78.20 395.61 148.12 325.91 217.82 256.00 C 148.12 186.09 78.21 116.40 8.46 46.54 C 4.19 42.42 1.68 36.92 0.00 31.31 L 0.00 22.72 C 2.41 11.46 11.42 2.46 22.67 0.00 Z" />
</g>
</svg>
